# xmcd
#
# Track frame offsets: 
#        150
#        13712
#        30692
#        46675
#        58300
#        74307
#        89955
#        101982
#        118147
#        133432
#        147775
#        162732
#        175222
#        189660
#
# Disc length: 2665 seconds
#
# Revision: 2
# Processed by: cddbd v1.5.1PL0 Copyright (c) Steve Scherf et al.
# Submitted via: ExactAudioCopy v0.95a3
#
DISCID=dd0a670e
DTITLE=Various Artist - Country Hot Hits #21
DYEAR=1900
DGENRE=
TTITLE0=Brooks and Dunn - Hard Workin' Man
TTITLE1=Deborah Allen - Rock Me (In The Cradle Of Love)
TTITLE2=Radney Roster - Nobody Wins
TTITLE3=Collin Raye - I Want You Bad (And That Ain't Good)
TTITLE4=Pam Tillis - Let That Pony Run
TTITLE5=Billy Ray Cyrus - She's Not Cryin' Anymore
TTITLE6=Tanya Tucker - It's A Little Too Late
TTITLE7=Shenandoah - Leavin's Been A Long Time Comin'
TTITLE8=Mary-Chapin Carpenter - Passioinate Kisses
TTITLE9=Mark Collie - Born To Love You
TTITLE10=John Anderson - Let Go Of The Stone
TTITLE11=Lorrie Morgan - What Part Of No
TTITLE12=Randy Travis - Look Heart No Hands
TTITLE13=George Strait - Heartland
EXTD=
EXTT0=Brooks and Dunn
EXTT1=Allen - Deborah
EXTT2=Foster - Radney
EXTT3=Raye - Collin
EXTT4=Tillis - Pam
EXTT5=Cyrus - Billy Ray
EXTT6=Tucker - Tanya
EXTT7=Shenandoah
EXTT8=Carpenter - Mary-Chapin
EXTT9=Collie - Mark
EXTT10=Anderson - John
EXTT11=Morgan - Lorrie
EXTT12=Travis - Randy
EXTT13=Strait - George
PLAYORDER=
